<svg width="500" height="500" viewBox="0 0 500 500" fill="none" xmlns="http://www.w3.org/2000/svg">
<g clip-path="url(#clip0_43_2)">
<path d="M249.617 0C111.917 0 0 111.917 0 249.617C0 387.317 111.917 499.234 249.617 499.234C387.317 499.234 499.234 387.317 499.234 249.617C499.234 111.917 387.317 0 249.617 0ZM249.617 465.233C130.617 465.233 34 368.616 34 249.616C34 130.616 130.617 34 249.617 34C368.617 34 465.234 130.617 465.234 249.617C465.234 368.617 368.617 465.233 249.617 465.233Z" fill="white"/>
<path d="M192.667 139.117C183.317 139.117 175.667 146.767 175.667 156.117V334.617C175.667 343.967 183.317 351.617 192.667 351.617C202.017 351.617 209.667 343.967 209.667 334.617V156.117C209.667 146.767 202.017 139.117 192.667 139.117Z" fill="white"/>
<path d="M308.833 139.117C299.483 139.117 291.833 146.767 291.833 156.117V334.617C291.833 343.967 299.483 351.617 308.833 351.617C318.183 351.617 325.833 343.967 325.833 334.617V156.117C325.833 146.767 318.183 139.117 308.833 139.117Z" fill="white"/>
</g>
<defs>
<clipPath id="clip0_43_2">
<rect width="499.233" height="499.233" fill="white"/>
</clipPath>
</defs>
</svg>
