<svg width="481" height="481" viewBox="0 0 481 481" fill="none" xmlns="http://www.w3.org/2000/svg">
<path d="M410.6 70.4C365.1 25 304.7 0 240.5 0C176.3 0 115.9 25 70.4 70.4C25 115.9 0 176.3 0 240.5C0 304.7 25 365.1 70.4 410.6C115.8 456 176.2 481 240.5 481C304.8 481 365.1 456 410.6 410.6C456 365.2 481 304.8 481 240.5C481 176.2 456 115.9 410.6 70.4ZM240.5 454C122.8 454 27 358.2 27 240.5C27 122.8 122.8 27 240.5 27C358.2 27 454 122.8 454 240.5C454 358.2 358.2 454 240.5 454Z" fill="white"/>
<path d="M349.2 229.1L196.6 131.2C192.4 128.5 187.2 128.3 182.8 130.7C178.5 133.1 175.8 137.6 175.8 142.5V338.2C175.8 343.1 178.5 347.7 182.8 350C184.8 351.1 187.1 351.7 189.3 351.7C191.8 351.7 194.4 351 196.6 349.6L349.2 251.7C353.1 249.2 355.4 244.9 355.4 240.3C355.4 235.7 353 231.6 349.2 229.1ZM202.8 313.7V167.3L316.9 240.5L202.8 313.7Z" fill="white"/>
</svg>
