<svg width="285" height="285" viewBox="0 0 285 285" fill="none" xmlns="http://www.w3.org/2000/svg">
<g clip-path="url(#clip0_38_29)">
<path d="M260.494 68.611C257.92 65.367 253.202 64.823 249.957 67.398C246.712 69.973 246.169 74.69 248.744 77.935C261.243 93.685 269.318 118.793 269.318 141.899C269.318 165.22 261.094 190.517 248.366 206.346C245.77 209.573 246.283 214.294 249.511 216.89C250.896 218.004 252.556 218.546 254.206 218.546C256.4 218.546 258.574 217.588 260.056 215.745C274.795 197.416 284.319 168.43 284.319 141.899C284.318 115.617 274.967 86.849 260.494 68.611Z" fill="white"/>
<path d="M211.401 92.0641C208.156 94.6391 207.613 99.3561 210.187 102.601C217.146 111.372 222.197 127.941 222.197 141.998C222.197 156.179 217.052 172.867 209.964 181.678C207.368 184.906 207.879 189.626 211.107 192.223C212.493 193.338 214.153 193.88 215.803 193.88C217.996 193.88 220.17 192.922 221.652 191.081C232.391 177.732 237.198 156.811 237.198 141.999C237.198 127.322 232.48 106.565 221.939 93.2791C219.362 90.0331 214.646 89.4901 211.401 92.0641Z" fill="white"/>
<path d="M177.606 8.18103C174.895 8.18103 172.179 9.05203 169.533 10.771L80 68.925C73.272 73.295 68.199 82.64 68.199 90.662V193.657C68.199 201.68 73.272 211.024 80 215.394L169.533 273.547C172.178 275.266 174.894 276.137 177.606 276.137C183.519 276.137 189.505 271.523 189.505 262.704V21.614C189.505 12.795 183.519 8.18103 177.606 8.18103ZM174.505 258.889L88.171 202.814C85.709 201.214 83.199 196.593 83.199 193.656V90.661C83.199 87.725 85.708 83.103 88.171 81.503L174.505 25.428V258.889Z" fill="white"/>
<path d="M40.012 77.074H17.5C7.851 77.074 0 84.925 0 94.574V189.745C0 199.394 7.851 207.245 17.5 207.245H40.012C49.661 207.245 57.512 199.394 57.512 189.745V94.574C57.512 84.924 49.661 77.074 40.012 77.074ZM42.512 189.744C42.512 191.099 41.367 192.244 40.012 192.244H17.5C16.145 192.244 15 191.099 15 189.744V94.574C15 93.219 16.145 92.074 17.5 92.074H40.012C41.367 92.074 42.512 93.219 42.512 94.574V189.744Z" fill="white"/>
</g>
<defs>
<clipPath id="clip0_38_29">
<rect width="284.318" height="284.318" fill="white"/>
</clipPath>
</defs>
</svg>
