<svg width="88" height="26" viewBox="0 0 88 26" fill="none" xmlns="http://www.w3.org/2000/svg">
<circle cx="13" cy="13" r="13" fill="#C4C4C4" fill-opacity="0.5"/>
<path d="M47.1797 8.85938H43.5234V19H42.0312V8.85938H38.3828V7.625H47.1797V8.85938ZM55.6719 17.0078L57.2969 10.5469H58.7422L56.2812 19H55.1094L53.0547 12.5938L51.0547 19H49.8828L47.4297 10.5469H48.8672L50.5312 16.875L52.5 10.5469H53.6641L55.6719 17.0078ZM61.7891 19H60.3438V10.5469H61.7891V19ZM60.2266 8.30469C60.2266 8.07031 60.2969 7.8724 60.4375 7.71094C60.5833 7.54948 60.7969 7.46875 61.0781 7.46875C61.3594 7.46875 61.5729 7.54948 61.7188 7.71094C61.8646 7.8724 61.9375 8.07031 61.9375 8.30469C61.9375 8.53906 61.8646 8.73438 61.7188 8.89062C61.5729 9.04688 61.3594 9.125 61.0781 9.125C60.7969 9.125 60.5833 9.04688 60.4375 8.89062C60.2969 8.73438 60.2266 8.53906 60.2266 8.30469ZM66.0703 8.5V10.5469H67.6484V11.6641H66.0703V16.9062C66.0703 17.2448 66.1406 17.5 66.2812 17.6719C66.4219 17.8385 66.6615 17.9219 67 17.9219C67.1667 17.9219 67.3958 17.8906 67.6875 17.8281V19C67.3073 19.1042 66.9375 19.1562 66.5781 19.1562C65.9323 19.1562 65.4453 18.9609 65.1172 18.5703C64.7891 18.1797 64.625 17.625 64.625 16.9062V11.6641H63.0859V10.5469H64.625V8.5H66.0703ZM71.3047 8.5V10.5469H72.8828V11.6641H71.3047V16.9062C71.3047 17.2448 71.375 17.5 71.5156 17.6719C71.6562 17.8385 71.8958 17.9219 72.2344 17.9219C72.401 17.9219 72.6302 17.8906 72.9219 17.8281V19C72.5417 19.1042 72.1719 19.1562 71.8125 19.1562C71.1667 19.1562 70.6797 18.9609 70.3516 18.5703C70.0234 18.1797 69.8594 17.625 69.8594 16.9062V11.6641H68.3203V10.5469H69.8594V8.5H71.3047ZM78.0859 19.1562C76.9401 19.1562 76.0078 18.7812 75.2891 18.0312C74.5703 17.276 74.2109 16.2682 74.2109 15.0078V14.7422C74.2109 13.9036 74.3698 13.1562 74.6875 12.5C75.0104 11.8385 75.4583 11.3229 76.0312 10.9531C76.6094 10.5781 77.2344 10.3906 77.9062 10.3906C79.0052 10.3906 79.8594 10.7526 80.4688 11.4766C81.0781 12.2005 81.3828 13.237 81.3828 14.5859V15.1875H75.6562C75.6771 16.0208 75.9193 16.6953 76.3828 17.2109C76.8516 17.7214 77.4453 17.9766 78.1641 17.9766C78.6745 17.9766 79.1068 17.8724 79.4609 17.6641C79.8151 17.4557 80.125 17.1797 80.3906 16.8359L81.2734 17.5234C80.5651 18.612 79.5026 19.1562 78.0859 19.1562ZM77.9062 11.5781C77.3229 11.5781 76.8333 11.7917 76.4375 12.2188C76.0417 12.6406 75.7969 13.2344 75.7031 14H79.9375V13.8906C79.8958 13.1562 79.6979 12.5885 79.3438 12.1875C78.9896 11.7812 78.5104 11.5781 77.9062 11.5781ZM87.1484 11.8438C86.9297 11.8073 86.6927 11.7891 86.4375 11.7891C85.4896 11.7891 84.8464 12.1927 84.5078 13V19H83.0625V10.5469H84.4688L84.4922 11.5234C84.9661 10.7682 85.638 10.3906 86.5078 10.3906C86.7891 10.3906 87.0026 10.4271 87.1484 10.5V11.8438Z" fill="white"/>
</svg>
